<svg width="1024" height="1024" viewBox="0 0 1024 1024" xmlns="http://www.w3.org/2000/svg">
  <defs>
    <linearGradient id="bg" x1="0" y1="0" x2="1" y2="1">
      <stop offset="0%" stop-color="#0B1A2C"/>
      <stop offset="55%" stop-color="#123E63"/>
      <stop offset="100%" stop-color="#17B0A2"/>
    </linearGradient>
    <linearGradient id="ring" x1="0" y1="0" x2="1" y2="1">
      <stop offset="0%" stop-color="#6FFFE9"/>
      <stop offset="100%" stop-color="#D6FFF6"/>
    </linearGradient>
    <filter id="softGlow" x="-40%" y="-40%" width="180%" height="180%">
      <feGaussianBlur stdDeviation="14" result="blur"/>
      <feMerge>
        <feMergeNode in="blur"/>
        <feMergeNode in="SourceGraphic"/>
      </feMerge>
    </filter>
  </defs>

  <rect x="0" y="0" width="1024" height="1024" fill="url(#bg)"/>

  <g opacity="0.18">
    <path d="M120 300 H904" stroke="#B7FFF2" stroke-width="2"/>
    <path d="M120 512 H904" stroke="#B7FFF2" stroke-width="2"/>
    <path d="M120 724 H904" stroke="#B7FFF2" stroke-width="2"/>
    <path d="M300 120 V904" stroke="#B7FFF2" stroke-width="2"/>
    <path d="M512 120 V904" stroke="#B7FFF2" stroke-width="2"/>
    <path d="M724 120 V904" stroke="#B7FFF2" stroke-width="2"/>
  </g>

  <g filter="url(#softGlow)">
    <circle cx="512" cy="512" r="308" fill="none" stroke="url(#ring)" stroke-width="34"/>
    <circle cx="512" cy="512" r="236" fill="none" stroke="#D6FFF6" stroke-opacity="0.35" stroke-width="8"/>
  </g>

  <g>
    <path d="M382 316 H546 C646 316 704 374 704 462 C704 544 650 594 564 602 L564 603 C646 609 702 664 702 748 C702 842 632 900 522 900 H382 Z"
          fill="#ECFFF9"/>
    <path d="M454 392 V566 H535 C596 566 630 535 630 482 C630 425 596 392 535 392 Z"
          fill="#0F2E4A"/>
    <path d="M454 644 V824 H520 C587 824 624 789 624 734 C624 678 587 644 520 644 Z"
          fill="#0F2E4A"/>
    <rect x="312" y="316" width="72" height="584" rx="28" fill="#6FFFE9"/>
    <rect x="312" y="316" width="72" height="156" rx="28" fill="#ECFFF9"/>
  </g>

  <g>
    <circle cx="256" cy="768" r="18" fill="#6FFFE9"/>
    <circle cx="768" cy="256" r="14" fill="#D6FFF6"/>
    <circle cx="806" cy="806" r="10" fill="#6FFFE9"/>
  </g>
</svg>
